Coordinates
version=1
nRows=32
nColumns=18
inDegrees=yes

Units are S.I. units (second, meters, Newtons, ...)
If the header above contains a line with 'inDegrees', this indicates whether rotational values are in degrees (yes) or radians (no).

endheader
time	ground_thorax_rot_x	ground_thorax_rot_y	ground_thorax_rot_z	ground_thorax_tx	ground_thorax_ty	ground_thorax_tz	clav_prot	clav_elev	scapula_abduction	scapula_elevation	scapula_upward_rot	scapula_winging	plane_elv	shoulder_elv	axial_rot	elbow_flexion	pro_sup
      1.24000000	      1.58894283	      0.30556931	     -8.21011500	     -0.00458899	      0.00630066	     -0.00227998	    -23.98696866	     14.04489435	    -13.80580260	      6.32284162	     26.32739378	     -0.11756431	    -19.70566797	      3.63831911	     61.91002542	      0.00000000	     34.32000000
      1.25000000	      1.55212515	      0.35062673	     -8.19406201	     -0.00453532	      0.00620409	     -0.00223218	    -23.98987594	     14.04882609	    -13.77323994	      6.31337789	     26.37841788	     -0.13513966	    -19.70069195	      3.67408113	     61.91058516	      0.00000000	     34.32000000
      1.26000000	      1.51615410	      0.42310958	     -8.16171171	     -0.00449696	      0.00631698	     -0.00238280	    -23.98906715	     14.04633982	    -13.72402566	      6.29758326	     26.43678987	     -0.15596491	    -19.69020637	      3.68345204	     61.91065819	      0.00000000	     34.32000000
      1.27000000	      1.47315366	      0.44278757	     -8.20459446	     -0.00447362	      0.00635642	     -0.00255503	    -24.05401924	     14.09367948	    -13.68499557	      6.27204796	     26.67372870	     -0.23820512	    -19.64560557	      3.45021567	     61.76947876	      0.00000000	     34.32000000
      1.28000000	      1.31096567	      0.47536125	     -8.11616017	     -0.00450146	      0.00643286	     -0.00282371	    -24.05377517	     14.12052223	    -13.65763285	      6.27883304	     26.72893050	     -0.25354140	    -19.60293872	      3.25419493	     61.75186911	      0.00000000	     34.32000000
      1.29000000	      1.20614948	      0.52475292	     -8.08878716	     -0.00448346	      0.00651833	     -0.00305188	    -24.08043711	     14.18661488	    -13.64624673	      6.29595352	     26.85729266	     -0.29063214	    -19.50391556	      3.01057646	     61.73875180	      0.00000000	     34.32000000
      1.30000000	      1.14940944	      0.59413805	     -8.07048057	     -0.00437996	      0.00668546	     -0.00327803	    -24.07867590	     14.20496616	    -13.61114015	      6.29659786	     26.91231704	     -0.30687674	    -19.48479610	      2.98414976	     61.74031458	      0.00000000	     34.32000000
      1.31000000	      1.11130008	      0.68307058	     -8.13528971	     -0.00431234	      0.00662725	     -0.00324577	    -24.07364414	     14.29098450	    -13.62756023	      6.35261105	     26.94833930	     -0.30527088	    -19.45275558	      2.84384228	     61.72234023	      0.00000000	     34.32000000
      1.32000000	      1.11142998	      0.68356341	     -8.13526340	     -0.00424871	      0.00660483	     -0.00317825	    -24.07378103	     14.29114413	    -13.62764547	      6.35264093	     26.94867534	     -0.30537740	    -19.45268722	      2.84404867	     61.72228705	      0.00000000	     34.32000000
      1.33000000	      1.16128923	      0.64776320	     -8.16795448	     -0.00415523	      0.00647764	     -0.00306453	    -24.08728807	     14.29593935	    -13.67180077	      6.36005966	     26.92827038	     -0.29900569	    -19.45826526	      2.86171819	     61.71575737	      0.00000000	     34.32000000
      1.34000000	      1.22259360	      0.60067712	     -8.18968491	     -0.00415587	      0.00640429	     -0.00295144	    -24.10800969	     14.29120378	    -13.72306383	      6.35977099	     26.90814823	     -0.29498530	    -19.46571653	      2.89248539	     61.70771823	      0.00000000	     34.32000000
      1.35000000	      1.27457284	      0.55305969	     -8.20217032	     -0.00419903	      0.00640021	     -0.00284264	    -24.12851958	     14.28617355	    -13.77128017	      6.35866269	     26.89084619	     -0.29202211	    -19.47458924	      2.92003014	     61.69795535	      0.00000000	     34.32000000
      1.36000000	      1.31570329	      0.52043328	     -8.20355628	     -0.00423441	      0.00643822	     -0.00274210	    -24.14781815	     14.28278281	    -13.80969863	      6.35633376	     26.88429272	     -0.29241489	    -19.48430907	      2.94041377	     61.68489824	      0.00000000	     34.32000000
      1.37000000	      1.31589106	      0.52024547	     -8.20354424	     -0.00429086	      0.00641754	     -0.00267637	    -24.14813070	     14.28278103	    -13.80999664	      6.35626659	     26.88448415	     -0.29261718	    -19.48444489	      2.94098235	     61.68472615	      0.00000000	     34.32000000
      1.38000000	      1.31603951	      0.52069015	     -8.20321984	     -0.00426776	      0.00641697	     -0.00261570	    -24.14833953	     14.28272984	    -13.80997537	      6.35610372	     26.88494962	     -0.29281102	    -19.48453200	      2.94147100	     61.68454161	      0.00000000	     34.32000000
      1.39000000	      1.31633278	      0.52168395	     -8.20261545	     -0.00419298	      0.00645160	     -0.00262080	    -24.14838295	     14.28260536	    -13.80960850	      6.35589948	     26.88540932	     -0.29299571	    -19.48454261	      2.94133211	     61.68433058	      0.00000000	     34.32000000
      1.40000000	      1.34312933	      0.56887409	     -8.17652381	     -0.00425662	      0.00656267	     -0.00264207	    -24.15147762	     14.27475214	    -13.79491672	      6.34529786	     26.90463850	     -0.30127758	    -19.48878607	      2.92656587	     61.66779893	      0.00000000	     34.32000000
      1.41000000	      1.34318901	      0.56984312	     -8.17627581	     -0.00423315	      0.00653904	     -0.00253808	    -24.15153766	     14.27476271	    -13.79461583	      6.34517800	     26.90516173	     -0.30146498	    -19.48888661	      2.92692963	     61.66757795	      0.00000000	     34.32000000
      1.42000000	      1.34352049	      0.57075470	     -8.17596172	     -0.00424859	      0.00647525	     -0.00239821	    -24.15168625	     14.27462225	    -13.79429398	      6.34491378	     26.90579386	     -0.30172395	    -19.48902211	      2.92774277	     61.66736464	      0.00000000	     34.32000000
      1.43000000	      1.50900824	      0.68414209	     -8.17838235	     -0.00432655	      0.00659458	     -0.00247535	    -24.22628590	     14.30099968	    -13.86655579	      6.33519923	     27.00765118	     -0.34156295	    -19.60097021	      3.07880752	     61.49905724	      0.00000000	     34.32000000
      1.44000000	      1.50996194	      0.68399105	     -8.17791077	     -0.00430832	      0.00652417	     -0.00255109	    -24.22635694	     14.30059552	    -13.86680077	      6.33500287	     27.00718443	     -0.34147703	    -19.60112595	      3.07813000	     61.49874783	      0.00000000	     34.32000000
      1.45000000	      1.53429650	      0.67811540	     -8.16634457	     -0.00431304	      0.00656794	     -0.00257970	    -24.22940390	     14.28808270	    -13.88044204	      6.33020510	     26.98710359	     -0.33679932	    -19.60878804	      3.04756193	     61.48380971	      0.00000000	     34.32000000
      1.46000000	      1.53441480	      0.67751805	     -8.16629273	     -0.00435748	      0.00656867	     -0.00262209	    -24.22955849	     14.28801576	    -13.88094893	      6.33022460	     26.98676680	     -0.33670743	    -19.60895038	      3.04708537	     61.48351834	      0.00000000	     34.32000000
      1.47000000	      1.52130208	      0.66216377	     -8.13224418	     -0.00436983	      0.00666047	     -0.00252540	    -24.24123570	     14.28351058	    -13.91274039	      6.32994733	     26.97016016	     -0.33298468	    -19.62399004	      2.98230384	     61.44597282	      0.00000000	     34.32000000
      1.48000000	      1.52145438	      0.67736777	     -8.11395230	     -0.00439268	      0.00668651	     -0.00255191	    -24.24232111	     14.27747839	    -13.91348754	      6.32615376	     26.96689008	     -0.33291192	    -19.62712360	      2.94560354	     61.42921197	      0.00000000	     34.32000000
      1.49000000	      1.54751578	      0.69668664	     -8.09120844	     -0.00438888	      0.00671597	     -0.00261269	    -24.23740184	     14.25875874	    -13.90715078	      6.31690065	     26.94856871	     -0.32887821	    -19.62637926	      2.88988734	     61.41701459	      0.00000000	     34.32000000
      1.50000000	      1.45879040	      0.74003744	     -8.03785151	     -0.00445868	      0.00664638	     -0.00272151	    -24.25393663	     14.22820420	    -13.94199997	      6.30008960	     26.91843530	     -0.32505051	    -19.60023044	      2.63763663	     61.35009615	      0.00000000	     34.32000000
      1.51000000	      1.40718094	      0.76505696	     -8.01360785	     -0.00446418	      0.00664139	     -0.00286886	    -24.27874056	     14.18327650	    -13.98065435	      6.27136027	     26.89103120	     -0.32531252	    -19.54730333	      2.41653186	     61.30908716	      0.00000000	     34.32000000
      1.52000000	      1.43897861	      0.77392571	     -7.99999194	     -0.00442498	      0.00671288	     -0.00301691	    -24.27649920	     14.16075632	    -13.98044946	      6.26016728	     26.86813416	     -0.32057514	    -19.53920544	      2.36279225	     61.30364057	      0.00000000	     34.32000000
      1.53000000	      1.43932138	      0.77384702	     -7.99979209	     -0.00441361	      0.00666501	     -0.00304137	    -24.27660191	     14.16040469	    -13.98066530	      6.25997233	     26.86784527	     -0.32049818	    -19.53903534	      2.36216455	     61.30355794	      0.00000000	     34.32000000
      1.54000000	      1.43895207	      0.77351778	     -8.00017482	     -0.00447457	      0.00666256	     -0.00293638	    -24.27681463	     14.16043486	    -13.98107591	      6.25998009	     26.86784279	     -0.32051746	    -19.53894971	      2.36247129	     61.30348706	      0.00000000	     34.32000000
      1.55000000	      1.43768607	      0.73978712	     -8.00663663	     -0.00446916	      0.00664307	     -0.00281309	    -24.29213719	     14.15561836	    -14.01036208	      6.25656348	     26.86250270	     -0.32111740	    -19.53205620	      2.37029776	     61.29719938	      0.00000000	     34.32000000
